PathFileType	4	(X/Y/Z)	S:\OneDrive - The University of Tokyo\ìåëÂéˆã∆\ÉoÉCÉÅÉJ\ë™íË\hirabayashi_2\Trimmed\Trimmed_BarRL0kg1.trc
DataRate	CameraRate	NumFrames	NumMarkers	Units	OrigDataRate	OrigDataStartFrame	OrigNumFrames
200.00	200.00	       9	12	mm	200.00	34	       234
Frame#	Time	BarR0			BarR50			BarR100			BarR130			BarR180			BarR230			BarL0			BarL50			BarL100			BarL130			BarL180			BarL230			
		X1	Y1	Z1	X2	Y2	Z2	X3	Y3	Z3	X4	Y4	Z4	X5	Y5	Z5	X6	Y6	Z6	X7	Y7	Z7	X8	Y8	Z8	X9	Y9	Z9	X10	Y10	Z10	X11	Y11	Z11	X12	Y12	Z12	

34	0.165	-575.99695	2755.47998	1664.47974	-604.88513	2306.34302	1662.47705	-637.34320	1851.93286	1662.12195	-660.76471	1349.42761	1662.10608	-690.08643	902.82379	1662.89673	-713.79279	454.73676	1664.12256	-1113.91382	2808.32617	1664.64099	-1140.92554	2356.56738	1668.00073	-1171.51392	1906.13818	1668.91882	-1199.12561	1404.03296	1669.08325	-1226.85071	952.70740	1668.38562	-1244.74072	506.50946	1667.62476	
35	0.170	-575.99854	2755.47290	1664.49463	-604.87781	2306.37476	1662.45898	-637.35895	1851.95154	1662.12048	-660.76044	1349.45227	1662.11731	-690.09528	902.80872	1662.89172	-713.79059	454.76437	1664.11707	-1113.88672	2808.32935	1664.62744	-1140.92200	2356.56445	1667.99878	-1171.52307	1906.14905	1668.91772	-1199.11243	1404.06030	1669.08191	-1226.86267	952.71985	1668.39844	-1244.77136	506.53012	1667.62659	
36	0.175	-576.00342	2755.46704	1664.48608	-604.89374	2306.37646	1662.46582	-637.30975	1851.95166	1662.12830	-660.76935	1349.44739	1662.12048	-690.09711	902.82367	1662.88574	-713.80261	454.77899	1664.12256	-1113.83789	2808.36646	1664.63123	-1140.93872	2356.56738	1668.00513	-1171.49646	1906.17102	1668.92371	-1199.12024	1404.03040	1669.09766	-1226.85583	952.73285	1668.40820	-1244.75647	506.50745	1667.62781	
37	0.180	-575.99231	2755.47290	1664.48328	-604.88556	2306.35278	1662.45605	-637.30750	1851.97070	1662.13831	-660.75189	1349.46887	1662.11584	-690.09564	902.78656	1662.87219	-713.78003	454.76849	1664.13098	-1113.91528	2808.35596	1664.62366	-1140.91321	2356.57886	1668.01355	-1171.50110	1906.13086	1668.92639	-1199.12122	1404.03052	1669.07727	-1226.86353	952.72473	1668.40344	-1244.73767	506.51181	1667.62744	
38	0.185	-575.99847	2755.48926	1664.47864	-604.90240	2306.37305	1662.46729	-637.34625	1851.97693	1662.13770	-660.74988	1349.43726	1662.13965	-690.08337	902.79425	1662.89441	-713.78156	454.78363	1664.12842	-1113.91833	2808.34937	1664.63000	-1140.91370	2356.56812	1667.99536	-1171.51697	1906.13367	1668.93005	-1199.10168	1404.06348	1669.11951	-1226.86829	952.72949	1668.40540	-1244.75232	506.49078	1667.62207	
39	0.190	-576.00238	2755.49927	1664.47876	-604.88300	2306.34741	1662.45813	-637.31647	1851.95471	1662.14099	-660.75195	1349.44543	1662.12439	-690.10742	902.82281	1662.87866	-713.77130	454.79337	1664.13440	-1113.88501	2808.33691	1664.63464	-1140.91699	2356.58691	1667.99695	-1171.49109	1906.13245	1668.91431	-1199.12549	1404.05896	1669.09277	-1226.86511	952.70923	1668.39526	-1244.76160	506.50330	1667.62952	
40	0.195	-576.00500	2755.48584	1664.48108	-604.87244	2306.34448	1662.47144	-637.33875	1851.95544	1662.11206	-660.75287	1349.45044	1662.11597	-690.07770	902.82288	1662.87781	-713.80090	454.77200	1664.13574	-1113.87891	2808.33130	1664.63452	-1140.92090	2356.54297	1668.00037	-1171.48401	1906.12268	1668.93481	-1199.10889	1404.03101	1669.10217	-1226.86646	952.73865	1668.40820	-1244.75964	506.51578	1667.62561	
41	0.200	-576.00281	2755.47412	1664.48804	-604.89496	2306.36719	1662.47510	-637.30725	1851.94885	1662.10388	-660.77271	1349.44775	1662.12000	-690.10858	902.83350	1662.87415	-713.79449	454.80548	1664.12573	-1113.89795	2808.32397	1664.62695	-1140.92761	2356.56909	1668.01184	-1171.49719	1906.15759	1668.91211	-1199.11621	1404.03296	1669.08423	-1226.85718	952.72858	1668.40930	-1244.75220	506.50266	1667.61536	
42	0.205	-575.99915	2755.46851	1664.46899	-604.89624	2306.36035	1662.47852	-637.32269	1851.95068	1662.11609	-660.75287	1349.43420	1662.11426	-690.09851	902.82123	1662.87622	-713.78131	454.77682	1664.12244	-1113.92419	2808.31445	1664.63501	-1140.91797	2356.56421	1668.01697	-1171.52393	1906.14771	1668.92896	-1199.10205	1404.03430	1669.09485	-1226.84485	952.72681	1668.39685	-1244.76343	506.51602	1667.62537	
